<svg width="32" height="32" viewBox="0 0 32 32" fill="none" xmlns="http://www.w3.org/2000/svg">
<path d="M7.27734 24.2468C4.47867 22.2362 2.66667 19.2002 2.66667 15.8775C2.66667 9.76417 8.63334 4.80017 16 4.80017C23.3667 4.80017 29.3333 9.76417 29.3333 15.8775C29.3333 21.9895 23.3667 26.9548 16 26.9548C14.5236 26.9625 13.0539 26.755 11.6373 26.3388C11.5147 26.2988 11.3493 26.2988 11.2267 26.2988C10.98 26.2988 10.7333 26.3788 10.5267 26.5028L7.60534 28.1855C7.52267 28.2255 7.44001 28.2668 7.35734 28.2668C7.2378 28.2665 7.12324 28.2189 7.03858 28.1345C6.95393 28.0501 6.90604 27.9357 6.90534 27.8162C6.90534 27.6922 6.94534 27.6108 6.98801 27.4882C7.02801 27.4468 7.39867 26.0922 7.60534 25.2722C7.60534 25.1895 7.64534 25.0668 7.64534 24.9855C7.64534 24.6566 7.52223 24.4104 7.276 24.2468M11.556 14.0162C12.512 14.0162 13.2693 13.2575 13.2693 12.3015C13.2693 11.3455 12.5133 10.5868 11.5573 10.5868C10.6013 10.5868 9.84401 11.3442 9.84401 12.3015C9.84401 13.2575 10.6 14.0148 11.5573 14.0148M20.4453 14.0148C21.4027 14.0148 22.1587 13.2562 22.1587 12.3002C22.1587 11.3442 21.4027 10.5855 20.4453 10.5855C19.4893 10.5855 18.732 11.3428 18.732 12.3002C18.732 13.2562 19.4893 14.0148 20.4453 14.0148Z" fill="var(--text-icon----T-i, white)" fill-opacity="0.5"/>
</svg>
