<svg width="32" height="32" viewBox="0 0 32 32" fill="none" xmlns="http://www.w3.org/2000/svg">
<path d="M12.3123 5.43532C11.6083 4.43837 10.6335 3.98912 9.59966 4.0002C8.61871 4.01005 7.66361 4.42975 6.86606 4.98854C6.05257 5.56125 5.35893 6.28752 4.82417 7.12644C4.31954 7.92523 3.95522 8.86926 4.00446 9.79113C4.242 14.2257 6.73682 18.9643 10.2409 22.4709C13.7425 25.9737 18.4183 28.4083 23.1396 27.943C24.0652 27.852 24.9403 27.3806 25.6554 26.7799C26.395 26.1534 26.9993 25.3829 27.4314 24.5152C27.8499 23.6635 28.0998 22.6813 27.9619 21.725C27.8191 20.7281 27.2616 19.837 26.2363 19.2462C26.0239 19.1229 25.8138 18.9957 25.6062 18.8646C25.4215 18.7502 25.2246 18.6258 24.9858 18.4831C24.4981 18.1824 23.9835 17.9277 23.4486 17.7224C22.8984 17.5218 22.2695 17.3901 21.6147 17.48C20.9365 17.5735 20.3064 17.8935 19.7611 18.4671C19.3414 18.9102 18.7235 19.048 17.8546 18.7969C16.9709 18.5409 15.9764 17.9058 15.1124 17.0467C14.2484 16.1901 13.5948 15.1882 13.3154 14.2836C13.0397 13.3875 13.1616 12.7291 13.5924 12.2749C14.1745 11.662 14.4847 10.9801 14.5499 10.2588C14.6139 9.55728 14.4391 8.89757 14.1893 8.32155C13.8151 7.46122 13.18 6.60581 12.6828 5.93872C12.5578 5.77193 12.4347 5.60371 12.3136 5.43409" fill="var(--text-icon----T-i, white)" fill-opacity="0.5"/>
</svg>
